<?xml version="1.0" encoding="UTF-8"?>
<svg version="1.1" xmlns="http://www.w3.org/2000/svg" width="856" height="824">
<path d="M0 0 C1.06160843 -0.00705963 2.12321686 -0.01411926 3.21699524 -0.02139282 C47.83151152 -0.25070217 47.83151152 -0.25070217 68.4375 3.203125 C69.67081055 3.40711914 70.90412109 3.61111328 72.17480469 3.82128906 C150.84451963 17.2089765 219.74681076 53.82884538 276.22454834 109.81594849 C277.64225365 111.22078923 279.06350176 112.62205194 280.48486328 114.02319336 C286.5740561 120.10527647 292.08459655 126.46940227 297.4375 133.203125 C298.43799437 134.41168679 299.44142667 135.61782936 300.44921875 136.8203125 C308.92313767 147.0751959 316.27179896 158.0054508 323.4375 169.203125 C323.86659668 169.87311523 324.29569336 170.54310547 324.73779297 171.23339844 C358.08381523 223.83202977 379.36176314 288.24792305 379.640625 350.765625 C379.64768463 351.82723343 379.65474426 352.88884186 379.66201782 353.98262024 C379.89132717 398.59713652 379.89132717 398.59713652 376.4375 419.203125 C376.23350586 420.43643555 376.02951172 421.66974609 375.81933594 422.94042969 C362.4316485 501.61014463 325.81177962 570.51243576 269.82467651 626.99017334 C268.41983577 628.40787865 267.01857306 629.82912676 265.61743164 631.25048828 C259.53534853 637.3396811 253.17122273 642.85022155 246.4375 648.203125 C245.22893821 649.20361937 244.02279564 650.20705167 242.8203125 651.21484375 C232.5654291 659.68876267 221.6351742 667.03742396 210.4375 674.203125 C209.76750977 674.63222168 209.09751953 675.06131836 208.40722656 675.50341797 C155.80859523 708.84944023 91.39270195 730.12738814 28.875 730.40625 C27.81339157 730.41330963 26.75178314 730.42036926 25.65800476 730.42764282 C-18.95651152 730.65695217 -18.95651152 730.65695217 -39.5625 727.203125 C-40.79581055 726.99913086 -42.02912109 726.79513672 -43.29980469 726.58496094 C-121.96951963 713.1972735 -190.87181076 676.57740462 -247.34954834 620.59030151 C-248.76725365 619.18546077 -250.18850176 617.78419806 -251.60986328 616.38305664 C-257.6990561 610.30097353 -263.20959655 603.93684773 -268.5625 597.203125 C-269.56299437 595.99456321 -270.56642667 594.78842064 -271.57421875 593.5859375 C-280.04813767 583.3310541 -287.39679896 572.4007992 -294.5625 561.203125 C-294.99159668 560.53313477 -295.42069336 559.86314453 -295.86279297 559.17285156 C-329.20881523 506.57422023 -350.48676314 442.15832695 -350.765625 379.640625 C-350.77268463 378.57901657 -350.77974426 377.51740814 -350.78701782 376.42362976 C-351.01632717 331.80911348 -351.01632717 331.80911348 -347.5625 311.203125 C-347.35850586 309.96981445 -347.15451172 308.73650391 -346.94433594 307.46582031 C-333.5566485 228.79610537 -296.93677962 159.89381424 -240.94967651 103.41607666 C-239.54483577 101.99837135 -238.14357306 100.57712324 -236.74243164 99.15576172 C-230.66034853 93.0665689 -224.29622273 87.55602845 -217.5625 82.203125 C-216.35393821 81.20263063 -215.14779564 80.19919833 -213.9453125 79.19140625 C-203.6904291 70.71748733 -192.7601742 63.36882604 -181.5625 56.203125 C-180.89250977 55.77402832 -180.22251953 55.34493164 -179.53222656 54.90283203 C-126.93359523 21.55680977 -62.51770195 0.27886186 0 0 Z " fill="#FEFEFE" transform="translate(420.5625,55.796875)"/>
<path d="M0 0 C28.05 0 56.1 0 85 0 C85.99 7.59 86.98 15.18 88 23 C89.2530713 31.81504208 90.84589406 40.44347815 92.8125 49.125 C93.0811084 50.3116626 93.3497168 51.4983252 93.62646484 52.72094727 C94.40927731 56.14929421 95.20274008 59.57498819 96 63 C96.28351318 64.24064209 96.28351318 64.24064209 96.57275391 65.50634766 C109.60193912 121.80791791 135.54045887 176.92239243 173 221 C173.87445338 222.05927264 174.74810837 223.11920471 175.62109375 224.1796875 C186.83676071 237.67765737 199.13108408 250.22821559 213 261 C214.13803073 261.93563156 215.2732706 262.87466423 216.40625 263.81640625 C256.8633817 297.24924332 307.89180143 317.40419395 360 322 C360.98943604 322.0942627 361.97887207 322.18852539 362.99829102 322.28564453 C369.6591832 322.892884 376.25027815 323.1585981 382.9375 323.125 C384.37343506 323.12209961 384.37343506 323.12209961 385.83837891 323.11914062 C390.87392225 323.08845169 395.85547497 322.93866012 400.875 322.5 C408.2274258 321.89980198 415.623117 322 423 322 C423 349.72 423 377.44 423 406 C409.26188907 408.28968515 396.10327102 409.23896318 382.25 409.25 C381.48099365 409.25067474 380.7119873 409.25134949 379.91967773 409.25204468 C366.41217395 409.23334832 353.33261097 408.25733833 340 406 C338.93942383 405.82839355 337.87884766 405.65678711 336.78613281 405.47998047 C281.27666047 396.4014801 227.20577481 375.23689097 181 343 C180.42765625 342.60635254 179.8553125 342.21270508 179.265625 341.80712891 C170.11160402 335.50600804 161.44091786 328.68687349 152.90234375 321.57763672 C151.18525264 320.15363226 149.45455505 318.74871406 147.71875 317.34765625 C139.58886137 310.68647256 132.13231665 303.34330513 124.6875 295.9375 C124.17525879 295.43052582 123.66301758 294.92355164 123.13525391 294.4012146 C116.28275696 287.60326613 110.02581142 280.55433201 104 273 C102.98246753 271.79336453 101.95875033 270.59188476 100.92578125 269.3984375 C100.06339844 268.40070313 99.20101562 267.40296875 98.3125 266.375 C97.87873047 265.88 97.44496094 265.385 96.99804688 264.875 C93.17711145 260.42758919 90.33077611 255.99616416 87 251 C86.67 302.48 86.34 353.96 86 407 C57.62 407 29.24 407 0 407 C0 272.69 0 138.38 0 0 Z " fill="#FF7300" transform="translate(224,225)"/>
<path d="M0 0 C28.71 0 57.42 0 87 0 C87.495 12.375 87.495 12.375 88 25 C88.60193364 29.42457198 89.20301368 33.50858179 90.1875 37.8125 C90.51633179 39.3447522 90.51633179 39.3447522 90.85180664 40.90795898 C93.03535654 50.76883047 95.78125963 60.42986391 99 70 C99.22768066 70.68288086 99.45536133 71.36576172 99.68994141 72.06933594 C115.19163946 117.77630061 145.11347629 159.05498738 188.765625 180.99609375 C199.57002292 186.22186395 210.22106704 189.2817847 222 192 C222 128.64 222 65.28 222 0 C248.73 0 275.46 0 303 0 C303 94.71 303 189.42 303 287 C289.38658244 289.04201263 276.85837654 290.53864379 263.25 290.4375 C262.38491821 290.43479095 261.51983643 290.43208191 260.62854004 290.42929077 C246.42025818 290.3621658 232.87237135 289.22373037 219 286 C218.15743652 285.81808105 217.31487305 285.63616211 216.44677734 285.44873047 C173.88744208 276.25315291 134.5535588 255.79064743 102 227 C101.1646875 226.27554688 100.329375 225.55109375 99.46875 224.8046875 C88.39773231 215.06362973 78.02897085 204.66937577 69 193 C68.00719327 191.75856818 67.01365217 190.51772343 66.01953125 189.27734375 C40.82982094 157.50114048 24.35662602 120.73420662 13 82 C12.80768799 81.36270966 12.61537598 80.72541931 12.41723633 80.06881714 C8.9790794 68.6376872 6.55823301 57.21024055 4.68701172 45.42407227 C4.25153357 42.69710323 3.79280812 39.9747478 3.33203125 37.25195312 C3.03765419 35.44293694 2.74464161 33.63369809 2.453125 31.82421875 C2.3208551 31.04850021 2.18858521 30.27278168 2.05230713 29.47355652 C0.52920187 19.6267788 0.48112827 10.10369361 0 0 Z " fill="#000000" transform="translate(342,227)"/>
<path d="M0 0 C3.91329453 0.54645104 5.58718985 2.29935613 8.25 5.125 C11.62969455 8.68971433 15.17190767 11.92890567 18.88134766 15.13964844 C23.05618002 18.80549571 27.0562791 22.66074962 31.08789062 26.48242188 C35.29271498 30.45023961 39.58155222 34.27103692 44 38 C42.42354671 41.29939308 40.67218493 43.67365423 38.1875 46.375 C36.99060547 47.68210937 36.99060547 47.68210937 35.76953125 49.015625 C34.84722093 50.01122033 33.92398278 51.00595664 33 52 C32.47841309 52.56138672 31.95682617 53.12277344 31.41943359 53.70117188 C29.17134652 56.11943814 26.92261934 58.53710415 24.67211914 60.953125 C20.6947884 65.23000121 16.80961121 69.57287076 13 74 C11.68860343 75.50096479 10.37610897 77.00097107 9.0625 78.5 C8.47597656 79.1703125 7.88945312 79.840625 7.28515625 80.53125 C6.86105469 81.0159375 6.43695313 81.500625 6 82 C2.59986814 81.4234559 1.07329515 80.39002339 -1.25 77.875 C-3.58477719 75.43721794 -5.93359803 73.13009994 -8.5 70.9375 C-12.53647362 67.45751109 -16.42482698 63.83149568 -20.3125 60.1875 C-26.48899666 54.39853006 -32.71492533 48.67094055 -39 43 C-32.39794852 35.270769 -25.73441708 27.63738188 -18.75 20.25 C-12.44203621 13.55177973 -6.1962448 6.80169907 0 0 Z " fill="#010101" transform="translate(497,227)"/>
</svg>
